<?xml version="1.0" encoding="UTF-8"?>
<svg width="30px" height="24px" viewBox="0 0 30 24" version="1.1" xmlns="http://www.w3.org/2000/svg" xmlns:xlink="http://www.w3.org/1999/xlink">
    <!-- Generator: sketchtool 53 (72520) - https://sketchapp.com -->
    <title>F0815410-C667-42E8-A95E-7C47D7E632B0</title>
    <desc>Created with sketchtool.</desc>
    <g id="Icons" stroke="none" stroke-width="1" fill="none" fill-rule="evenodd">
        <g id="32px-Menu" transform="translate(-46.000000, -177.000000)" fill-rule="nonzero">
            <g id="Icon-/-Menu-/-Camera" transform="translate(45.000000, 173.000000)">
                <g id="New-Expense">
                    <g id="Camera" transform="translate(1.000000, 4.000000)">
                        <path d="M7.2732003,4.5 L8.2144076,1.91148145 C8.49785485,1.13194175 9.40208065,0.5 10.228333,0.5 L19.7714282,0.5 C20.6002412,0.5 21.5030895,1.13519585 21.7853536,1.91148145 L22.7265609,4.5 L26.498938,4.5 C28.1563788,4.5 29.5,5.84031395 29.5,7.5041402 L29.5,20.9958598 C29.5,22.6550006 28.1594313,24 26.498938,24 L3.50106195,24 C1.8436212,24 0.5,22.659686 0.5,20.9958598 L0.5,7.5041402 C0.5,5.8449994 1.8405687,4.5 3.50106195,4.5 L7.2732003,4.5 Z M25.75,10 C26.7164983,10 27.5,9.2164983 27.5,8.25 C27.5,7.2835017 26.7164983,6.5 25.75,6.5 C24.7835017,6.5 24,7.2835017 24,8.25 C24,9.2164983 24.7835017,10 25.75,10 Z M15,21.5 C19.418278,21.5 23,17.918278 23,13.5 C23,9.081722 19.418278,5.5 15,5.5 C10.581722,5.5 7,9.081722 7,13.5 C7,17.918278 10.581722,21.5 15,21.5 Z" id="Shape" fill="#F88782"></path>
                        <circle id="Oval" fill="#F66660" cx="15" cy="13.5" r="6"></circle>
                    </g>
                </g>
            </g>
        </g>
    </g>
</svg>