<?xml version="1.0" encoding="UTF-8"?>
<svg width="32px" height="29px" viewBox="0 0 32 29" version="1.1" xmlns="http://www.w3.org/2000/svg" xmlns:xlink="http://www.w3.org/1999/xlink">
    <!-- Generator: sketchtool 53 (72520) - https://sketchapp.com -->
    <title>FEC62CAD-717B-42C9-A732-AC45FBD1AD50</title>
    <desc>Created with sketchtool.</desc>
    <g id="Icons" stroke="none" stroke-width="1" fill="none" fill-rule="evenodd">
        <g id="32px-Menu" transform="translate(-45.000000, -65.000000)" fill-rule="nonzero">
            <g id="Icons-/-Menu-/Cards" transform="translate(45.000000, 63.000000)">
                <g id="My-Cards">
                    <g id="Credit-cards" transform="translate(0.000000, 2.000000)">
                        <path d="M24.3166703,0.199825161 C25.41447,0.0626675246 26.4131958,0.852991907 26.5475527,1.96643816 L28.2549204,16.1157867 C28.389203,17.2286178 27.6078588,18.2419663 26.5103185,18.3790915 L4.18332975,21.1685959 C3.08553005,21.3057535 2.08680425,20.5154291 1.95244735,19.4019829 L0.2450796,5.25263431 C0.110797,4.13980322 0.89214125,3.12645479 1.98968155,2.98932956 L24.3166703,0.199825161 Z M0.48941675,7.2775124 L0.79409015,9.80241048 L27.0965632,6.51621432 L26.7918898,3.99131625 L0.48941675,7.2775124 Z" id="Shape" fill="#41B79D"></path>
                        <path d="M32,12.7143014 C32,11.5924934 31.1033742,10.6842105 29.9973302,10.6842105 L7.50266975,10.6842105 C6.3968871,10.6842105 5.5,11.5931132 5.5,12.7143014 L5.5,26.9699091 C5.5,28.0917172 6.3966258,29 7.50266975,29 L29.9973302,29 C31.1031129,29 32,28.0910974 32,26.9699091 L32,12.7143014 Z" id="Shape" fill="#6DD9C1"></path>
                        <path d="M8.5,23.9122807 C8.5,23.3503067 8.9450292,22.8947368 9.5000531,22.8947368 L15.9999469,22.8947368 C16.552261,22.8947368 17,23.3463887 17,23.9122807 C17,24.4742547 16.5549708,24.9298246 15.9999469,24.9298246 L9.5000531,24.9298246 C8.947739,24.9298246 8.5,24.4781727 8.5,23.9122807 Z M18.5,23.9122807 C18.5,23.3503067 18.9450292,22.8947368 19.5000531,22.8947368 L25.9999469,22.8947368 C26.552261,22.8947368 27,23.3463887 27,23.9122807 C27,24.4742547 26.5549708,24.9298246 25.9999469,24.9298246 L19.5000531,24.9298246 C18.947739,24.9298246 18.5,24.4781727 18.5,23.9122807 Z M8.5,16.7885077 C8.5,16.2270672 8.94371665,15.7719298 9.4998075,15.7719298 L12.5001925,15.7719298 C13.052371,15.7719298 13.5,16.2230612 13.5,16.7885077 L13.5,18.8255274 C13.5,19.3869679 13.0562834,19.8421053 12.5001925,19.8421053 L9.4998075,19.8421053 C8.94762905,19.8421053 8.5,19.3909739 8.5,18.8255274 L8.5,16.7885077 Z" id="Shape" fill="#41B79D"></path>
                    </g>
                </g>
            </g>
        </g>
    </g>
</svg>