<?xml version="1.0" encoding="UTF-8"?>
<svg width="32px" height="32px" viewBox="0 0 32 32" version="1.1" xmlns="http://www.w3.org/2000/svg" xmlns:xlink="http://www.w3.org/1999/xlink">
    <!-- Generator: sketchtool 53 (72520) - https://sketchapp.com -->
    <title>9C195B88-5BB4-4943-955B-D3D0B28D154A</title>
    <desc>Created with sketchtool.</desc>
    <g id="Icons" stroke="none" stroke-width="1" fill="none" fill-rule="evenodd">
        <g id="32px-Menu" transform="translate(-211.000000, -293.000000)" fill-rule="nonzero">
            <g id="Icon-/-Menu-/-Help" transform="translate(211.000000, 293.000000)">
                <g id="Help-Center">
                    <g id="Help-Copy">
                        <path d="M16.2622951,32 C7.163444,32 0,24.836556 0,16.2622951 C0,7.163444 7.163444,0 16.2622951,0 C24.836556,0 32,7.163444 32,16.2622951 C32,24.836556 24.836556,32 16.2622951,32 Z M16,23.5 C20.1421356,23.5 23.5,20.1421356 23.5,16 C23.5,11.8578644 20.1421356,8.5 16,8.5 C11.8578644,8.5 8.5,11.8578644 8.5,16 C8.5,20.1421356 11.8578644,23.5 16,23.5 Z" id="Shape" fill="#FBC774"></path>
                        <path d="M11.6664596,9.87890295 C11.5501266,9.81507065 11.4663105,9.6967943 11.4504098,9.5536886 L10.5495901,1.4463114 C10.5260772,1.2346954 10.6459882,1.0091181 10.8313793,0.90037995 C12.482771,0.3304858 14.2616946,0.01552705 16.1230943,0.0005594 C18.8422867,0.02521595 21.0719878,0.8567244 21.0719878,0.8567244 C21.3083724,0.9358533 21.4772347,1.2048875 21.4504098,1.4463114 L20.5495901,9.5536886 C20.5334474,9.69897325 20.4507921,9.81585535 20.3343902,9.87871225 C19.1105554,9.01075065 17.6151382,8.5005594 16.0005594,8.5005594 C14.3858623,8.5005594 12.8903442,9.0108254 11.6664596,9.87890295 Z M20.3352846,22.1217721 C20.4512154,22.184744 20.5334888,22.3013991 20.5495901,22.4463114 L21.4504098,30.5536886 C21.4772347,30.7951125 21.3083724,31.0641467 21.0719878,31.1432756 C21.0719878,31.1432756 18.8422845,31.9747849 16.1230902,31.9994406 C14.2703498,31.9845449 12.4993201,31.6725543 10.8544307,31.1123568 C10.6560284,31.0093422 10.5251164,30.7739525 10.5495901,30.5536886 L11.4504098,22.4463114 C11.46627,22.3035701 11.5497002,22.1855319 11.6655715,22.1215858 C12.8896207,22.9900465 14.3854717,23.5005594 16.0005594,23.5005594 C17.6155315,23.5005594 19.111284,22.9901195 20.3352846,22.1217721 Z M22.1215858,11.6655715 C22.1855319,11.5497002 22.3035701,11.46627 22.4463114,11.4504098 L30.5536886,10.5495901 C30.7739525,10.5251164 31.0093422,10.6560284 31.1123568,10.8544307 C31.6725543,12.4993201 31.9845449,14.2703498 31.9994406,16.1230902 C31.9747849,18.8422845 31.1432756,21.0719878 31.1432756,21.0719878 C31.0641467,21.3083724 30.7951125,21.4772347 30.5536886,21.4504098 L22.4463114,20.5495901 C22.3013991,20.5334888 22.184744,20.4512154 22.1217721,20.3352846 C22.9901195,19.111284 23.5005594,17.6155315 23.5005594,16.0005594 C23.5005594,14.3854717 22.9900465,12.8896207 22.1215858,11.6655715 Z M9.87871225,20.3343902 C9.81585535,20.4507921 9.69897325,20.5334474 9.5536886,20.5495901 L1.4463114,21.4504098 C1.2048875,21.4772347 0.9358533,21.3083724 0.8567244,21.0719878 C0.8567244,21.0719878 0.02521595,18.8422867 0.0005594,16.1230943 C0.01552705,14.2616946 0.3304858,12.482771 0.90037995,10.8313793 C1.0091181,10.6459882 1.2346954,10.5260772 1.4463114,10.5495901 L9.5536886,11.4504098 C9.6967943,11.4663105 9.81507065,11.5501266 9.87890295,11.6664596 C9.0108254,12.8903442 8.5005594,14.3858623 8.5005594,16.0005594 C8.5005594,17.6151382 9.01075065,19.1105554 9.87871225,20.3343902 Z" id="Shape" fill="#F5A623"></path>
                    </g>
                </g>
            </g>
        </g>
    </g>
</svg>