<?xml version="1.0" encoding="UTF-8"?>
<svg width="33px" height="34px" viewBox="0 0 33 34" version="1.1" xmlns="http://www.w3.org/2000/svg" xmlns:xlink="http://www.w3.org/1999/xlink">
    <!-- Generator: sketchtool 53 (72520) - https://sketchapp.com -->
    <title>60B12448-2DD0-4D14-B763-B85106E2250D</title>
    <desc>Created with sketchtool.</desc>
    <g id="Mobile-App" stroke="none" stroke-width="1" fill="none" fill-rule="evenodd">
        <g id="Menu" transform="translate(-89.000000, -551.000000)">
            <g id="Icons-/-Menu-/-PiggyBank" transform="translate(89.000000, 551.000000)">
                <g id="Icons-/-Expenses-/-PiggyBank">
                    <g id="spaarvarken">
                        <path d="M21.6659816,30.8769299 C19.6756046,31.0693247 18.2169671,30.9763919 18.2169671,30.9763919 C18.2169671,30.9763919 17.1828509,31.0372184 15.6659816,30.9636001 L15.6659816,34 L10.6659816,34 L10.6659816,30.2627098 C6.77637867,29.2832228 2.99191879,27.0366379 3.76795258,21.9450443 C5.28762214,11.9744221 10.2369967,8 18.2169671,8 C26.1969375,8 32.6659816,11.9931204 32.6659816,21.9450443 C32.6659816,26.35632 29.8270658,28.6313867 26.6659816,29.797311 L26.6659816,34 L21.6659816,34 L21.6659816,30.8769299 Z" id="Oval-2" fill="#ED81C1"></path>
                        <path d="M12.6659816,16 C14.9784532,14.0178815 17.2909248,13.0179614 19.6033964,13.0002398 C21.4830248,12.9858353 23.3626533,13.6203497 25.2422817,14.903783 C25.5586595,15.1198096 26.0332261,15.4852153 26.6659816,16" id="Path" stroke="#CB57B3" stroke-width="1.3"></path>
                        <circle id="Oval" fill="#CB57B3" cx="7.16598165" cy="18.5" r="1.5"></circle>
                        <path d="M6.51889162,20.4698314 C8.77833743,20.4698314 11.5735981,24.4826254 8.92042981,27.5206665 C7.15165096,29.5460273 4.84484103,29.9929866 2,28.8615446 C3.50629721,23.2670692 5.01259441,20.4698314 6.51889162,20.4698314 Z" id="Triangle" fill="#ED81BB" transform="translate(6.000000, 24.969831) rotate(57.000000) translate(-6.000000, -24.969831) "></path>
                        <path d="M7.27113385,7 C8.91759838,8.50901394 9.93839603,9.78911167 10.3335268,10.8402932 C10.7286576,11.8914747 10.7715714,13.2780437 10.4622681,15 L4.83876158,13.4709329 C4.58806728,12.2618344 4.61018085,11.2649898 4.90510228,10.4803991 C5.20002372,9.69580831 5.98870091,8.53567528 7.27113385,7 Z" id="Triangle" fill="#E66AAF" transform="translate(7.665982, 11.000000) rotate(-67.000000) translate(-7.665982, -11.000000) "></path>
                        <circle id="Oval" stroke="#A3967B" stroke-width="1.3" fill="#EDD381" cx="18.6659816" cy="5" r="4.35"></circle>
                        <text id="€" font-family="OpenSans-Bold, Open Sans" font-size="6.5" font-weight="bold" fill="#44566C">
                            <tspan x="16.3108791" y="8">€</tspan>
                        </text>
                    </g>
                </g>
            </g>
        </g>
    </g>
</svg>