<?xml version="1.0" encoding="UTF-8"?>
<svg width="30px" height="29px" viewBox="0 0 30 29" version="1.1" xmlns="http://www.w3.org/2000/svg" xmlns:xlink="http://www.w3.org/1999/xlink">
    <!-- Generator: sketchtool 53 (72520) - https://sketchapp.com -->
    <title>D4D11CDB-32F4-4E0F-94A6-9EC8A416D5F7</title>
    <desc>Created with sketchtool.</desc>
    <g id="Icons" stroke="none" stroke-width="1" fill="none" fill-rule="evenodd">
        <g id="32px-Menu" transform="translate(-46.000000, -295.000000)">
            <g id="Icon-/-Menu-/-Show-Love" transform="translate(45.000000, 293.000000)">
                <g id="Show-the-love">
                    <rect id="Rectangle" x="0" y="0" width="32" height="32"></rect>
                    <g id="Love" transform="translate(1.000000, 2.000000)" fill-rule="nonzero">
                        <path d="M25.0022341,23.5 C27.7618608,23.5 30,21.2592589 30,18.4951646 L30,5.5048354 C30,2.7367144 27.762424,0.5 25.0022341,0.5 L4.99776585,0.5 C2.2381392,0.5 0,2.74074115 0,5.5048354 L0,18.4951646 C0,21.2632856 2.237576,23.5 4.99776585,23.5 L9.44561905,23.5 C9.9973764,23.5 10.7403827,23.8320846 11.1087513,24.2457534 L14.4662746,28.0161684 C14.8326715,28.427623 15.4296616,28.4288839 15.7971814,28.0161684 L19.1547046,24.2457534 C19.5214699,23.8338852 20.2697207,23.5 20.8182116,23.5 L25.0022341,23.5 Z" id="Shape" fill="#F497B2"></path>
                        <path d="M23,10.7041226 C23,8.38231295 21.1062857,6.5 18.7705397,6.5 C17.1224127,6.5 15.6976508,7.43920005 15.000127,8.80678945 C14.3020953,7.43920005 12.8777143,6.50025245 11.2294603,6.50025245 C8.8935873,6.5001262 7,8.38231295 7,10.7041226 C7,15.0959336 14.095746,19.9054054 15.000127,19.9054054 C15.9046349,19.9054054 23,15.1170123 23,10.7041226 Z" id="Shape" fill="#E3436A"></path>
                    </g>
                </g>
            </g>
        </g>
    </g>
</svg>