<?xml version="1.0" encoding="UTF-8"?>
<svg width="145px" height="76px" viewBox="0 0 145 76" version="1.1" xmlns="http://www.w3.org/2000/svg" xmlns:xlink="http://www.w3.org/1999/xlink">
    <!-- Generator: Sketch 53 (72520) - https://sketchapp.com -->
    <title>Group</title>
    <desc>Created with Sketch.</desc>
    <defs>
        <filter x="-23.0%" y="-11.9%" width="146.1%" height="123.7%" filterUnits="objectBoundingBox" id="filter-1">
            <feOffset dx="-1" dy="1" in="SourceAlpha" result="shadowOffsetOuter1"></feOffset>
            <feGaussianBlur stdDeviation="1.5" in="shadowOffsetOuter1" result="shadowBlurOuter1"></feGaussianBlur>
            <feColorMatrix values="0 0 0 0 0.215686275   0 0 0 0 0.274509804   0 0 0 0 0.37254902  0 0 0 0.12 0" type="matrix" in="shadowBlurOuter1" result="shadowMatrixOuter1"></feColorMatrix>
            <feMerge>
                <feMergeNode in="shadowMatrixOuter1"></feMergeNode>
                <feMergeNode in="SourceGraphic"></feMergeNode>
            </feMerge>
        </filter>
        <linearGradient x1="45.1036025%" y1="69.1931497%" x2="51.1844074%" y2="21.0063559%" id="linearGradient-2">
            <stop stop-color="#7755FE" offset="0%"></stop>
            <stop stop-color="#E994F7" offset="100%"></stop>
        </linearGradient>
        <path d="M2.52733963,36.2873598 L14.6741386,12.2407428 C15.4876825,10.6301967 17.4527958,9.98409879 19.0633419,10.7976427 C20.163593,11.3534186 20.8573718,12.4811391 20.8573718,13.7137944 L20.8573718,25.9073186 C20.8573718,26.7469407 21.53802,27.4275889 22.3776421,27.4275889 L28.9700074,27.4275889 C30.817176,27.4275889 32.314602,28.9250149 32.314602,30.7721835 C32.314602,31.3241802 32.1779796,31.8675956 31.9169212,32.3539585 L19.3082242,55.8444939 C18.4452191,57.4523089 16.4422236,58.0560967 14.8344086,57.1930915 C13.7620453,56.6174936 13.0929487,55.4989617 13.0929487,54.2818849 L13.0929487,42.6602251 C13.0929487,41.820603 12.4123005,41.1399549 11.5726784,41.1399549 L5.5126784,41.1399549 C3.66550982,41.1399549 2.16808381,39.6425288 2.16808381,37.7953603 C2.16808381,37.271495 2.29114087,36.7549547 2.52733963,36.2873598 Z" id="path-3"></path>
        <linearGradient x1="70.787035%" y1="32.0772635%" x2="63.8070165%" y2="72.848136%" id="linearGradient-5">
            <stop stop-color="#7755FE" offset="0%"></stop>
            <stop stop-color="#E994F7" offset="100%"></stop>
        </linearGradient>
        <linearGradient x1="70.502068%" y1="-7.3259069%" x2="76.4871432%" y2="56.4582656%" id="linearGradient-6">
            <stop stop-color="#7755FE" offset="0%"></stop>
            <stop stop-color="#E994F7" offset="100%"></stop>
        </linearGradient>
    </defs>
    <g id="Mobile-App" stroke="none" stroke-width="1" fill="none" fill-rule="evenodd">
        <g id="Sign-In-UI" transform="translate(-114.000000, -108.000000)">
            <g id="Group" transform="translate(116.000000, 100.000000)">
                <g id="Logo-/-Dark-Logo">
                    <g id="Group">
                        <g id="Logo-/-Icon-/-Color">
                            <g id="Logo-Icon" filter="url(#filter-1)" transform="translate(-0.000000, 0.000000)">
                                <mask id="mask-4" fill="white">
                                    <use xlink:href="#path-3"></use>
                                </mask>
                                <use id="Lighting-Bolt" fill="url(#linearGradient-2)" xlink:href="#path-3"></use>
                                <ellipse id="Oval-Copy" fill="url(#linearGradient-5)" mask="url(#mask-4)" cx="10.3525641" cy="21.2556433" rx="29.5352564" ry="30.3978555"></ellipse>
                                <ellipse id="Oval" fill="url(#linearGradient-6)" mask="url(#mask-4)" cx="22.9887821" cy="45.025395" rx="20.7051282" ry="19.1224605"></ellipse>
                            </g>
                        </g>
                        <path d="M44.3911859,35.510473 C45.5969551,36.4804054 46.3673077,37.9185811 46.3673077,39.2898649 C46.3673077,40.2597973 45.6639423,44.3067568 40.7738782,44.3067568 C38.4293269,44.3067568 35.6828526,43.2699324 34.7785256,40.9287162 C34.7115385,40.7949324 37.3910256,39.0557432 37.6924679,39.4570946 C38.4628205,40.5273649 39.2666667,40.9621622 40.706891,41.0290541 C42.8504808,41.0290541 43.0179487,39.5574324 43.0514423,39.2898649 C43.0514423,38.1527027 41.8791667,37.6844595 40.2714744,37.5172297 C38.2283654,37.2831081 34.7115385,36.1793919 34.7115385,32.5003378 C34.7115385,29.289527 37.4245192,27.3831081 40.3719551,27.3831081 C41.4772436,27.3831081 42.5825321,27.6506757 43.5873397,28.1523649 C43.9222756,28.3195946 46.3673077,29.4233108 46.3673077,31.4635135 C46.3003205,32.2996622 43.5203526,32.5337838 43.1184295,31.9317568 C42.6495192,30.9952703 41.2427885,30.6942568 40.3049679,30.6942568 C39.0657051,30.6942568 37.9939103,31.3966216 37.9939103,32.5337838 C37.9939103,34.9418919 41.6112179,33.3699324 44.3911859,35.510473 Z M57.2831731,44.4070946 C55.3740385,44.4070946 53.5988782,43.7716216 52.1921475,42.7013514 L52.1921475,51.0293919 C52.1921475,51.9324324 48.8762821,51.9324324 48.8762821,51.0293919 L48.8762821,36.0121622 C48.8762821,31.3966216 52.6610577,27.6172297 57.2831731,27.6172297 C61.9387821,27.6172297 65.6900641,31.3966216 65.6900641,36.0121622 C65.6900641,40.6611486 61.9387821,44.4070946 57.2831731,44.4070946 Z M57.2831731,30.9283784 C54.4697116,30.9283784 52.1921475,33.2027027 52.1921475,36.0121622 L52.1921475,36.0456081 C52.1921475,38.8216216 54.4697116,41.0959459 57.2831731,41.0959459 C60.0966346,41.0959459 62.3741987,38.8216216 62.3741987,36.0121622 C62.3741987,33.2361486 60.0966346,30.9283784 57.2831731,30.9283784 Z M76.404968,27.4834459 C80.4576923,27.4834459 84.811859,30.4266892 84.811859,35.8783784 C84.811859,36.7814189 84.075,37.5172297 83.1371795,37.5172297 L71.5818911,37.5172297 C72.2852564,39.5239865 74.1608975,40.9621622 76.404968,40.9621622 C77.1753205,40.9621622 78.5485577,40.8952703 80.15625,39.8584459 C80.9266026,39.3567568 82.3333334,42.3334459 81.5629808,42.8351351 C79.3524039,44.3067568 77.6442308,44.2733108 76.404968,44.2733108 C71.749359,44.2733108 67.998077,40.4939189 67.998077,35.8783784 C67.998077,31.2293919 71.749359,27.4834459 76.404968,27.4834459 Z M76.404968,30.7945946 C74.1608975,30.7945946 72.2852564,32.2327703 71.5818911,34.2060811 L81.2615385,34.2060811 C80.5581731,31.8648649 78.4145834,30.7945946 76.404968,30.7945946 Z M95.59375,27.4834459 C100.215865,27.4834459 104.000641,31.2293919 104.000641,35.8783784 L104.000641,42.6010135 C104.000641,43.5375 100.684776,43.5375 100.684776,42.6010135 L100.684776,35.8783784 C100.684776,33.0689189 98.4072116,30.7945946 95.59375,30.7945946 C92.7802885,30.7945946 90.5027244,33.0689189 90.5027244,35.8783784 L90.5027244,42.6010135 C90.5027244,43.5375 87.186859,43.5375 87.186859,42.6010135 L87.186859,35.8783784 C87.186859,31.2293919 90.9716347,27.4834459 95.59375,27.4834459 Z M114.782532,27.4165541 C116.691667,27.4165541 118.466827,28.052027 119.873558,29.1222973 L119.873558,20.7942568 C119.873558,19.8912162 123.189423,19.8912162 123.189423,20.7942568 L123.189423,35.8114865 C123.189423,40.427027 119.404647,44.2064189 114.782532,44.2064189 C110.126923,44.2064189 106.375641,40.427027 106.375641,35.8114865 C106.375641,31.1625 110.126923,27.4165541 114.782532,27.4165541 Z M114.782532,40.8952703 C117.595994,40.8952703 119.873558,38.6209459 119.873558,35.8114865 L119.873558,35.7780405 C119.873558,33.002027 117.595994,30.7277027 114.782532,30.7277027 C111.969071,30.7277027 109.691506,33.002027 109.691506,35.8114865 C109.691506,38.5875 111.969071,40.8952703 114.782532,40.8952703 Z M133.870833,44.2733108 C129.248718,44.2733108 125.463942,40.4939189 125.463942,35.8783784 C125.463942,31.2293919 129.248718,27.4834459 133.870833,27.4834459 C138.526442,27.4834459 142.277724,31.2293919 142.277724,35.8783784 C142.277724,40.4939189 138.526442,44.2733108 133.870833,44.2733108 Z M133.870833,30.7945946 C131.057372,30.7945946 128.779808,33.0689189 128.779808,35.8783784 C128.779808,38.6543919 131.057372,40.9621622 133.870833,40.9621622 C136.684295,40.9621622 138.961859,38.6543919 138.961859,35.8783784 C138.961859,33.0689189 136.684295,30.7945946 133.870833,30.7945946 Z" id="spendo" fill="#4A5B6D"></path>
                    </g>
                </g>
                <text id="Expences-Made-Easy" font-family="OpenSans-SemiBold, Open Sans" font-size="14" font-weight="500" line-spacing="29" fill="#44566C">
                    <tspan x="2.31347656" y="75">Expences Made Easy</tspan>
                </text>
            </g>
        </g>
    </g>
</svg>